<svg xmlns="http://www.w3.org/2000/svg" xmlns:xlink="http://www.w3.org/1999/xlink" version="1.1" x="0px" y="0px" viewBox="0 0 100 125" enable-background="new 0 0 100 100" xml:space="preserve"><g><path d="M23.715,88.255l-0.626,0.084l-0.333-0.292l0.333-1.21l0.042-0.959l-0.458-1.168l0.208-1.459l0.375-1.21l0.417-0.208   l-0.125-0.459l-0.625-0.126l0.667-0.292v-0.792l-0.501-1.71l0.167-0.418l-0.375-0.251l0.167-0.374l0.292-1.585l-0.292-0.417   l-1.126-2.836l-1.335-0.251l-1.126-0.209l-1.001-1.209l-1.168-1.586L17,68.902l0.208-0.459l-0.25-0.418l-0.626,0.251l-0.208,1.002   l0.458,0.958l0.751,0.918l-0.083,0.667l-0.459-0.083l-0.834-0.792L14.79,70.07l-0.917-0.376l-0.542-0.125l-0.208-0.543l1.585-5.004   l0.167-1.127v-1.209l-0.334-2.085l-0.709-3.588l-0.292-2.002l0.083-1.334l0.292-2.42l0.417-2.628l-0.167-1.626l0.042-1.585   l0.042-3.003l0.042-2.21l0.333-2.086l0.417-1.459l0.459-0.959l0.542,0.25l-0.208,0.667l-0.042,0.417l0.042,0.25l-0.459,0.292v0.333   l0.375,0.5l0.501,0.375l0.333,0.25l0.542,0.376c0,0,0.167,0.208,0.292,0.25c0.125,0.042,1.251,0,1.46,0s1.877,0.667,1.918,0.834   c0.042,0.167,1.251,1.46,1.251,1.46s1.042,0.959,1.251,1c0.208,0.042,1.418-0.709,1.418-0.709l0.167-1.126l-0.167-1.25   c0,0-1.084-0.792-1.126-0.917c-0.042-0.126,0.25-0.835,0.25-0.835l0.876-0.458l0.959-1.418l0.75-0.083l0.959-0.083l0.292-0.584   l-0.625-0.25l-0.292-0.667v-0.5l0.625-0.667l0.792-0.626l1.251,0.083l0.834,0.501l0.626,0.959l0.625,0.875v0.667l-0.667,1.084   l-0.542,0.75l-0.5,0.917l0.083,1.043l0.458,0.167l0.417-0.583l0.083-0.751l0.375-0.584l0.917-0.125l1.043,0.167l0.333,0.375   l0.042,0.834l0.25,0.084c0,0,0.25-0.793,0.292-0.918c0.042-0.125,0.042-0.417,0.042-0.542s-0.083-1.168-0.083-1.168l-1.251-0.375   l-0.375,0.417l-0.417,0.292l-0.209-0.459l0.459-0.792l0.5-1.043l-0.25-0.875l-0.458-0.25l-0.292-1.043l0.376-0.458l0.292-0.792   l-0.209-0.584l-0.333-0.709l-0.126-0.834l0.584-0.834l0.834-0.667l1.084-0.834l1.584-0.208l1.46-0.042l0.625,0.417l0.042,0.709   l0.542,0.25l1.001-0.792l1.084-1.501l0.959-0.292h1.293l0.751-0.25l0.167-0.668l-1.71-0.542l-1.501,0.042l-1.042,0.709   l-0.626,0.667c0,0-0.5,0.167-0.709,0.167s-1.251-0.083-1.376,0c-0.125,0.083-1.918,0.418-1.918,0.418l-0.709,0.208   c0,0-0.667,0.25-0.709,0.375c-0.042,0.126-0.584,0.292-0.709,0.292s-0.709-0.209-0.709-0.209l-0.959-0.584l-0.751-0.125l-0.5,0.292   l-0.542,0.292c0,0-0.834,0.084-1.001,0.125c-0.167,0.042-1.043,0.042-1.043,0.042l-0.625,0.292l-0.876,1l-0.834,0.209h-0.792   l-0.918,0.375c0,0-0.167,0.543-0.125,0.667c0.042,0.125,0.459,0.709,0.584,0.709c0.125,0,0.834-0.042,0.959,0   c0.125,0.042,0.792-0.5,0.792-0.5s0.709-0.625,0.792-0.751c0.083-0.125,0.417-0.375,0.417-0.375l0.876,0.333l0.375,0.542   l-0.083,0.627l-0.209,0.5l-0.542,0.417H26.76l-0.584-0.042l-0.167,0.417l0.042,0.458l0.375,0.751l0.083,0.625   c0,0-0.292,0.667-0.334,0.793c-0.042,0.125-0.417,0.625-0.417,0.625l-0.625,0.833L24.925,34.2l-0.417,0.667l-0.25,0.333   l-0.875,0.042c0,0-0.751-0.626-0.876-0.667c-0.125-0.042-0.709-0.625-0.876-0.584c-0.166,0.042-0.708,0.25-0.708,0.25   s-0.125,0.25-0.042,0.417s0.333,0.333,0.542,0.376c0.208,0.041,0.5,0.125,0.5,0.125s0.458,0.458,0.5,0.625s0.208,1.001,0.25,1.126   c0.042,0.125-0.792,1.001-0.792,1.001l-0.542,0.084c0,0-0.834,0.041-0.834-0.084s-0.292-1.084-0.292-1.084l-0.042-0.918   l-0.084-1.417l0.459-0.709c0,0,0.25-0.458,0.459-0.542c0.208-0.083,0.583-0.333,0.709-0.292c0.125,0.042,0.917-0.125,1.084-0.208   c0.167-0.083,0.918-0.834,0.918-0.834s0-0.584,0-0.793c0-0.208-0.125-1.335-0.125-1.335l-0.292-0.667l-0.333-0.251l-0.459,0.208   l-0.208,0.459l-0.584,0.917c0,0-0.584,1.042-0.792,1.085c-0.208,0.041-0.875,0.041-0.917,0.167   c-0.042,0.125-0.459,0.625-0.417,0.792c0.042,0.167-0.042,0.709-0.042,0.875c0,0.167-0.083,0.542-0.042,0.668   c0.042,0.125-0.376,0.834-0.376,0.834l-1.001,0.417l-0.834-0.667l-0.167-1.21l-0.959-0.834c0,0-0.167-0.958-0.125-1.084   c0.042-0.125,2.127-4.337,2.127-4.337l1.793-2.377l1.21-1.418l1.209-1.585l0.918,0.167h0.458l2.086,0.208l1.417-0.917l0.834-0.668   l1.084-0.042l1.543,0.584l1.251,0.083l2.085-0.5l1.627-0.709l2.168-1.919l2.086-2.961l1.584-2.962l1.794-2.543l0.751-1.377   c0,0,0.417-0.958,0.709-1.042c0.292-0.084,0.875-0.208,1.001-0.167c0.125,0.042,1.126,0.083,1.376,0.083   c0.25,0,1.585-0.125,1.793-0.25c0.208-0.126,1.919-1.252,1.919-1.252l1.292-0.584c0,0,1.377-1.376,1.502-1.376   s1.252-0.834,1.252-0.834l1.002-0.709L57.416,2c0,0,0.168,0.418,0.168,0.542c0,0.125,0.166,0.709-0.043,0.792   c-0.207,0.083-0.834,0.5-0.834,0.5l-0.875,0.584l-0.836,0.583c0,0-0.791,0.793-0.75,0.917c0.043,0.126-0.459,0.709-0.459,0.709   s-0.041,0.626-0.041,0.751c0,0.125-0.543,1.627-0.543,1.627l0.293,1.084c0,0,0.459,0.709,0.5,0.876   c0.041,0.166,0.375,0.625,0.375,0.625l0.127,0.626l-0.209,1.418c0,0-0.126,1.209-0.126,1.334c0,0.126,0.126,1.961,0.126,1.961   s0.209,0.709,0.25,0.959c0.041,0.251-0.168,1.918-0.168,1.918l-0.793,0.918l-1.083,1.459c0,0-0.584,1.918-0.584,2.043   c0,0.125-0.501,1.335-0.501,1.335l-0.876,0.458l-1.292-0.167l0.166,0.542l0.584,0.125l0.5,0.167l-0.5,1.459l-0.125,0.96   c0,0,0,0.833,0.041,0.958c0.042,0.126,0.333,1.293,0.333,1.293v1.418l0.5,0.792l0.208,0.833c0,0-0.542,0.209-0.667,0.251   c-0.126,0.042-1.127-0.125-1.127-0.125s-0.5,0.083-0.584,0.209c-0.083,0.125-0.167,0.458-0.167,0.458s0.375,0.209,0.542,0.167   c0.167-0.042,0.625-0.333,0.751-0.333c0.125,0,1.001-0.126,1.167-0.084c0.167,0.042,0.458,0.292,0.458,0.292l0.042,0.918   l0.126,1.25v1.335l1.168,1.292l0.583,0.167l1.253-0.042l1.584-0.083c0,0,1.877-0.334,2.002-0.292   c0.125,0.042,1.084,0.083,1.125,0.25c0.043,0.167,1.086,0.96,1.127,1.085c0.043,0.125,0.168,0.959,0.168,0.959   s0.291,1.084,0.332,1.251c0.043,0.167-0.041,1,0,1.126c0.043,0.125-0.041,1.292-0.041,1.292l-1.002,1.084   c0,0-0.666,0.668-0.707,0.834c-0.043,0.168-0.461,0.834-0.461,0.834l-0.584,0.835c0,0-0.209,0.75-0.209,0.917   c0,0.168-0.207,1.334-0.207,1.334l-0.834,0.252c0,0-0.626-0.292-0.584-0.418s-0.125-0.626-0.042-0.792   c0.084-0.168,0.585-0.46,0.585-0.668s-0.501-0.75-0.501-0.75s-0.959,0.083-0.959,0.25c0,0.166-0.335,0.708-0.335,0.708   s-0.208,0.292-0.166,0.502c0.042,0.208-0.042,0.5,0,0.624c0.042,0.126,0,0.668,0.042,0.835s-0.21,0.667-0.333,0.71   c-0.127,0.041-0.793-0.043-0.793-0.043s-0.209-0.625-0.084-0.708c0.125-0.084,0.375-0.626,0.375-0.626v-0.376l-0.667-0.167   c0,0-0.249-0.041-0.501,0c-0.25,0.043-1.293,0.292-1.293,0.292l-0.125-0.959l0.251-0.416c0,0,0.417-0.292,0.541-0.292   c0.126,0,0.584-0.292,0.71-0.418c0.125-0.125,0.125-0.292,0.291-0.459c0.168-0.167,0.084-0.751,0.084-0.751l-0.75-0.625   l-0.918,0.333c0,0-0.334,0.459-0.416,0.626c-0.084,0.167-0.836,1.251-0.836,1.251s-0.333,0.5-0.333,0.627   c0,0.124-0.834,0.75-0.834,0.75v0.96l0.333,1.042c0,0,0.208,0.709,0.25,0.834c0.042,0.125,0.21,0.792,0.21,0.918   c0,0.125,0,1.459,0,1.459s-0.251,1.043-0.251,1.252c0,0.208-0.417,1.168-0.458,1.292c-0.042,0.126-0.584,0.918-0.584,0.918   s0.167,0.668,0.125,0.835s-0.208,0.418-0.333,0.418c-0.125,0-0.5-0.043-0.5-0.043l-0.5-0.959l-1.167-0.251h-0.834l-0.626,0.335   l-1.418,0.458v0.584c0,0,1.085,0.208,1.251,0.292c0.167,0.084,0.876,0.041,1.085,0.125c0.208,0.083,0.583,0.251,0.583,0.251   l0.042,0.375l-0.375,0.834l0.042,0.583c0,0-0.084,0.794-0.042,0.919s-0.208,0.583-0.208,0.583l-1,0.5l-1.46-0.041l-0.542,0.334   l-1.46-0.166l-0.459-0.584l-0.792-0.127l-1.209,0.168l-0.625,0.042l-0.375,0.25l0.125,0.251c0,0,0.625,0.083,0.751,0.041   c0.125-0.041,0.792-0.084,0.792-0.084l0.542,0.043l0.459,0.583c0,0,0.5,0.416,0.542,0.543c0.042,0.124,0.584,0.375,0.584,0.375   s0.459-0.042,0.583,0c0.125,0.041,0.667,0,0.667,0l0.167,0.5l-0.542,1.043l-0.793,0.292c0,0-0.459,0.375-0.5,0.501   c-0.042,0.125-0.083,0.541-0.083,0.541l-0.208,0.293l-0.125,0.458c0,0-0.917-0.082-1.043-0.041c-0.125,0.041-0.917-0.25-0.917-0.25   l-0.542-0.167c0,0-0.292,0.292-0.251,0.417c0.042,0.124-0.166,0.542-0.166,0.542s0.583,0.084,0.834,0.125   c0.25,0.042,0.917-0.083,1.042,0c0.125,0.084,0.208,0.542,0.25,0.71c0.042,0.165-0.25,0.875-0.25,0.875s-0.542,0.208-0.625,0.335   c-0.084,0.124-0.125,0.457-0.125,0.583c0,0.125,0.042,0.459,0.042,0.583c0,0.126-0.417,0.418-0.417,0.418s-0.208,0.209-0.083,0.334   c0.125,0.124,0.584,0.208,0.584,0.208l0.333,0.376c0,0,0.208,0.625,0.167,0.792c-0.042,0.166-0.375,0.668-0.292,0.792   c0.084,0.126,0.876,0.459,0.876,0.459s0.459,0,0.5,0.168c0.042,0.166-0.208,1.334-0.208,1.334l-0.501,1.002l-0.959,0.04   c0,0-0.333-0.292-0.5-0.25c-0.167,0.042-0.792,0.459-0.792,0.459l-0.667,0.709c0,0-0.125,0.459-0.083,0.584   c0.041,0.125,0.458,0.542,0.458,0.542s0.583,0.627,0.583,0.835s-0.792,0.667-0.792,0.667s-0.542,0.042-0.668,0.208   c-0.125,0.167-0.125,0.5-0.125,0.5l0.292,0.335c0,0,1.001,0,1.126-0.042s0.792-0.25,0.959-0.209   c0.167,0.043,0.584,0.543,0.667,0.709c0.083,0.168,0.584,0.209,1.043,0.543c0.458,0.333,0.625,0.209,0.625,0.209   s0.626,0.875,0.667,1.001c0.042,0.125,0.959,0.5,0.959,0.5l0.167-0.751c0,0-0.042-0.667-0.167-0.626   c-0.125,0.042-0.542-0.167-0.542-0.167s-0.333-1.042-0.5-1.001c-0.167,0.042-1.251-0.041-1.251-0.041l-0.25-0.751l0.083-0.751   l0.751-0.333l1.752,0.667l0.751,1.001c0,0,0.833,0.668,0.959,0.709c0.125,0.043,0.709,0.251,0.709,0.251s0.375,1.376,0.417,1.501   s0.584,0.875,0.584,1.001c0,0.125-0.125,0.75-0.25,0.959s-0.584,0.376-0.751,0.46c-0.167,0.083-1.084,0.124-1.084,0.124   l-1.001-0.167l-1.084-0.918c0,0-0.167-0.292-0.543-0.292s-0.75-0.041-0.75-0.041l-0.334-0.041c0,0-0.208,0.209-0.5,0.25   c-0.292,0.041-0.959-0.376-1.209-0.334s-0.959,0.334-0.959,0.334l-0.625,0.792c0,0-0.292,0.709-0.417,0.793   s-0.959,0.333-0.959,0.333s-0.375-0.125-0.542-0.125c-0.167,0-0.834,0.418-0.834,0.418l-0.292,0.25h-0.625l-0.668-0.25   l-0.333-0.501l-0.667-0.542l-0.626-0.209l-1.043-0.167l-1.251-0.125l-0.667-0.584c0,0-0.542-0.292-0.751-0.251   c-0.208,0.043-0.5-0.041-0.709,0c-0.208,0.043-0.5,0-0.5,0l-1.335,0.127l-0.833-0.043L23.715,88.255z"/><path d="M41.775,70.112l0.542-0.543l0.501-0.083c0,0,0.375,0.208,0.417,0.334c0.042,0.124,0.083,0.542,0.083,0.542   s0.584,0.25,0.833,0.209c0.251-0.043,0.876-0.209,1.001-0.293c0.125-0.083,1.043-0.417,1.209-0.542   c0.167-0.126,1.126-0.792,1.126-0.792l1.001-0.71L49.95,67.9c0,0,1.46-0.04,1.503,0.084c0.041,0.125,0.666,0.292,1,0.5   c0.333,0.21,0.584,0.334,0.668,0.502c0.082,0.166,0.416,0.458,0.416,0.667c0,0.208-0.082,0.5-0.041,0.667s-0.251,0.5-0.375,0.626   c-0.127,0.125-0.919,0.542-0.961,0.959c-0.041,0.417,0.042,0.751,0.042,0.751s0.376,0.292,0.626,0.167   c0.252-0.126,1.127-0.459,1.461-0.501c0.332-0.041,0.875-0.084,1.084-0.125c0.208-0.043,0.625-0.5,0.625-0.5   s0.084-1.044,0.084-1.21c0-0.167-0.084-0.667-0.042-1.043c0.042-0.375,0.501-0.834,0.501-0.834s0.291,0,0.416,0.208   s0.168,0.751,0.209,1.084c0.041,0.334,0.168,0.834,0.418,0.918c0.248,0.084,0.375,0.043,0.457,0.292   c0.086,0.251,0,0.668-0.166,0.709s-0.5-0.083-0.625,0.168c-0.125,0.249-0.209,0.249-0.168,0.458   c0.043,0.209,0.043,0.417,0.375,0.584c0.334,0.168,0.502,0.543,0.584,0.668c0.086,0.124,0.711,1.501,0.711,1.501   s0.207,0.751,0.207,0.959s0,0.584,0,0.793s0,1.878,0.043,2.002c0.041,0.125,0.166,1.334,0.166,1.334l-1.209,4.005l-0.502,0.249   c0,0-0.625,0.127-0.666,0.251c-0.041,0.125-0.459,0.794-0.459,0.794s0.168,0.416,0.334,0.375c0.166-0.043,0.334,0.041,0.375,0.166   s-0.209,0.417-0.125,0.585c0.084,0.166,0.377,0.249,0.377,0.249l1.041-0.875c0,0,0.668-0.46,0.752-0.584   c0.082-0.126,0.834-1.836,0.834-1.836s0.166-1.293,0.291-1.501c0.125-0.209,0.459-0.752,0.459-0.752l0.5-0.666l0.5,0.416   c0,0-0.291,1.168-0.332,1.336c-0.043,0.166-0.252,1.167-0.252,1.334s-0.375,1.419-0.416,1.543   c-0.043,0.126-0.959,1.376-1.043,1.544c-0.082,0.167-0.75,1.793-0.75,1.793l-0.418,1.794c0,0-0.541,1.46-0.541,1.584   c0,0.126-0.584,1.336-0.584,1.336H56.75c0,0-0.585-0.793-0.585-0.918c0-0.126,0.084-1.252,0.084-1.252l-0.417-0.584l-0.418-0.792   h0.418c0,0,0.041-0.083,0.208,0s0.667-0.375,0.667-0.375l0.166-0.251c0,0,0.043-0.625,0.084-0.834   c0.043-0.208,0.084-1.042,0.084-1.042L56.5,86.921l-0.502-0.126c0,0-0.291,0.126-0.5,0.167c-0.208,0.042-0.793-0.041-0.793-0.041   l-0.375-1.002v-0.542l0.375-0.584c0,0-0.125-0.167-0.334-0.167c-0.208,0-1.334-0.125-1.5-0.165   c-0.168-0.043-1.127-0.335-1.127-0.335l-1.001-0.375l-0.625-0.876c0,0-0.542-0.459-0.709-0.459c-0.166,0-0.876,0.751-1.084,0.751   s-1.042-0.417-1.042-0.667c0-0.251,0.459-0.71,0.625-0.71s0.167-0.584,0.167-0.584l-0.292-0.918l-0.876,0.043   c0,0-0.583,0-0.709,0.208c-0.125,0.209-0.125,0.918-0.084,1.084c0.042,0.167,0.042,0.167,0.042,0.167l-0.917,0.043l-0.042-0.585   l-0.334-1.502c0,0,0-0.5-0.125-0.542s-0.792-0.374-0.792-0.374s-0.375-0.918-0.333-1.127c0.042-0.21-0.042-1.377-0.042-1.377   l-0.584-1.209c0,0-0.875-0.376-0.959-0.5c-0.083-0.126-0.292-1.002-0.292-1.002l0.125-0.918l-0.125-1.043l-0.417-0.667l0.167-0.583   L41.775,70.112z"/><path d="M77.438,56.097c0,0,0.959-0.416,1.084-0.416s1.168-1.126,1.168-1.126l1.5-1.377c0,0,1.586-0.584,1.713-0.625   c0.123-0.043,1.5-0.167,1.5-0.167s1.543,0.25,1.668,0.292c0.125,0.04,0.959,0.792,0.959,0.792s1.043,0.292,1.252,0.417   s0.709,0.542,0.75,0.751c0.043,0.208,0.252,0.792,0.043,1c-0.209,0.209-1.002,1.293-1.002,1.419s-0.332,1.376-0.332,1.376   s0.166,1.085,0.25,1.334c0.082,0.251,0.584,0.669,0.584,0.918c0,0.251,0.25,1.419,0.25,1.419l-0.168,1.126   c0,0-0.082,0.626-0.082,0.75c0,0.126,0.207,0.877,0.207,0.877l0.668,0.751c0,0,0.459,1.501,0.459,1.626s0.125,0.835,0.084,1.001   c-0.041,0.167-1.127,0.835-1.252,0.918s-0.375,0.209-0.625,0.209c-0.252,0-0.584-0.126-0.627-0.417   c-0.041-0.292-0.082-0.668-0.125-0.876c-0.041-0.208-0.041-0.5-0.041-0.5l-0.25-0.043l-0.375,0.292c0,0,0.25,0.043-0.334,0.043   s-1.377,0.083-1.377,0.083s-0.875,0.417-0.916,0.709c-0.043,0.292-1.252,1.835-1.252,1.835s-0.627,0.917-0.586,1.043   c0.043,0.124-0.041,0.583,0.043,0.834c0.084,0.25,1.043,0.917,1.168,1c0.125,0.084,1.584,0.585,1.584,0.585   s1.043,0.834,1.127,0.959s0.041,0.709,0.041,0.709l0.209,0.96l0.041,0.667c0,0-0.5,0.376-0.625,0.5   c-0.125,0.125-0.959,0.459-0.959,0.459l-1.502,0.375c0,0-1.043,0.084-1.209,0.292c-0.168,0.209-1.459,1.418-1.586,1.586   c-0.125,0.167-0.834,0.333-0.959,0.375c-0.125,0.041-0.5,0.291-0.459,0.501c0.043,0.208,0.25,0.501,0.377,0.583   c0.125,0.083,0.75,0.083,1.041,0.042c0.293-0.042,0.834-0.124,0.834-0.124l0.293,0.667l-0.334,0.667l-0.625,0.084l0.875,1.25   c0,0,0,0.71-0.041,0.876c-0.041,0.167,0.543,0.918,0.543,0.918s1.168-0.042,1.334-0.125s0.166-1.209,0.166-1.209   s-0.959-0.043-1.209-0.209c-0.25-0.167-0.418-0.501-0.332-0.626c0.082-0.125,0.416-0.584,0.582-0.584c0.168,0,0.709-0.167,0.836,0   c0.123,0.167,0.248,0.209,0.373,0.417c0.125,0.209,0.918,0.459,1.086,0.502c0.166,0.04,1.084,0,1.334,0.081   c0.25,0.084,1.543,0.711,1.627,0.919s0.125,1.252,0.125,1.252s-0.25,0.75-0.418,0.708c-0.166-0.041-1.041-0.167-1.041-0.167   s-1.377-0.417-1.627-0.417s-1.002,0.5-1.086,0.751c-0.082,0.251-0.791,1.002-0.791,1.002s-0.959,0.457-1.086,0.457   c-0.123,0-1.041-0.165-1.041-0.165s-0.291-0.668-0.418-0.543c-0.125,0.124-0.209,0.584-0.209,0.584s0.668,0.417,0.752,0.542   c0.082,0.125,0.291,0.626,0.291,0.835c0,0.208-1.209,1.459-1.209,1.459s-0.625,0.543-0.625,0.667c0,0.126-0.25,0.668-0.293,0.834   c-0.041,0.168-0.5,1.126-0.5,1.126l-0.543,1.711c0,0,0.252,1.252,0.293,1.376c0.041,0.126,0.041,0.834,0.041,0.834l-0.625,0.084   l-0.418-0.5l-0.207-0.71l-0.543-0.667c0,0-0.168-0.583-0.127-0.71c0.043-0.124,0.211-1.25,0.211-1.25l0.332-0.543l-0.25-0.751   l-0.457-0.041l-0.793,0.251l-0.043,0.624l0.459,0.335c0,0,0.125,0.208,0.125,0.333s-0.166,0.626-0.166,0.626l-0.293,0.292   l-0.834,0.124L74.1,95.512l-0.834-0.082h-1.125l-1.043,0.25c0,0-0.709,0.251-0.793,0.459s-0.166,0.709-0.166,0.709l-0.375,0.209   l-0.461-0.418l-1-0.584l-0.668-0.5l-0.457-0.751l-0.961-0.375l-1.627-0.835l-1.625-0.667c0,0-0.834-0.543-0.877-0.667   c-0.043-0.126-0.541-0.918-0.541-0.918s0.041-0.459,0.207-0.459c0.168,0,0.459-0.083,0.627,0.042   c0.166,0.125,0.707,0.333,0.707,0.333l0.502-0.124l0.209-0.084l0.291-0.376v-0.25l-0.332-0.041l-0.252-0.584l-0.291-0.501   l-0.752-0.251v-0.666c0,0,0.625-0.46,0.793-0.46c0.166,0,0.709-0.416,0.709-0.416l0.25-0.376c0,0,0.625-0.334,0.793-0.334   s1.043,0,1.043,0l1.168,0.626c0,0,0.916,0.793,1.043,1.042c0.125,0.251,1,0.793,1,0.793l0.584,0.626l1.002,0.584l0.457,0.042   l0.377-0.292l0.041-0.251c0,0,0.375-0.083,0.584-0.041c0.209,0.041,0.584-0.251,0.584-0.251l0.168-0.791   c0,0-0.043-0.419,0.082-0.419s0.793,0.376,0.834,0.502c0.043,0.125,0.459,0.291,0.459,0.291l0.334-0.584l-0.043-0.709l-0.498-0.417   l0.207-0.625h0.668l0.584,0.416l0.291-0.292c0,0,0-0.542,0.168-0.5c0.166,0.042,1.334,0.417,1.502,0.584   c0.166,0.167,0.625,0.626,0.834,0.668s0.709,0.166,0.709,0.166h0.334h0.541l-0.125-0.792c0,0-0.25-0.334-0.375-0.376   s-0.793-0.5-0.793-0.5l-0.375-0.167l-1.502-0.125c0,0-0.959-1.085-1.084-1.251c-0.125-0.167-0.584-0.793-0.627-0.918   c-0.041-0.125-0.875-2.294-0.916-2.42c-0.041-0.124-0.543-1.376-0.543-1.376s-1.836-0.667-1.961-0.625   c-0.123,0.041-0.916-0.251-1.125-0.291c-0.209-0.043-2.586-0.211-2.836-0.252c-0.252-0.04-0.711-0.25-0.918-0.458   c-0.209-0.209-0.5-0.835-0.5-0.835l-0.752-0.875l-0.584-0.084l-1.043-1.377l0.543-0.876l0.709-0.458l0.166-1.043V71.53   l-0.625-0.794l-0.334-1.042l0.084-0.918l-0.334-1.168l-0.752-0.874l-1-1.127l-0.834-1.126l-0.793-0.585l-0.332-0.375l0.582-0.458   l1.002,0.124l1.877,0.543l0.875,0.084l1.877-0.127l1.627-1.334c0,0,0.125-0.959,0.125-1.085c0-0.125,0.041-0.667,0.168-0.625   c0.125,0.041,0.625,0.084,0.875,0.084c0.252,0,0.793-0.084,0.959-0.334c0.168-0.251,0.336-0.627,0.336-0.835s0-0.918,0-0.918   l-0.377-0.584c0,0-1.168-0.542-1.293-0.542s-0.793-0.124-0.918-0.166s-0.918-0.418-0.918-0.418l-0.791-0.875l-0.125-0.459   l0.291-0.375l0.668,0.208c0,0,0.418,0.417,0.5,0.584c0.084,0.167,0.291,0.459,0.5,0.585c0.209,0.124,1.002,0.292,1.002,0.292   l1.334,0.208h0.668c0,0,0.668-0.125,0.75,0c0.084,0.124,0.334,0.208,0.418,0.334c0.084,0.124,0.416,0.208,0.416,0.208   s0.375,0.042,0.584-0.084c0.209-0.124,0.711-0.5,0.711-0.5l0.916-0.126l0.375,0.376c0,0-0.291,0.626-0.416,0.75   c-0.125,0.127-0.25,0.502-0.209,0.627s-0.125,0.459-0.125,0.459l-0.793-0.334l-0.5,0.083c0,0-0.084,0.209-0.041,0.375   c0.041,0.168,0.5,0.584,0.584,0.751c0.082,0.167,0.416,0.834,0.416,0.834l0.084,0.668l-0.459,0.626c0,0-0.584-0.251-0.709-0.208   c-0.125,0.041-1.168-0.043-1.125,0.208c0.041,0.249,0.041,0.625,0.166,0.667c0.125,0.041,0.541,0,0.75,0s1.168,0,1.168,0   s0.543,0.459,0.584,0.626c0.041,0.166,0.334,0.709,0.334,0.709l1.043,0.375c0,0,0.168-0.5,0.209-0.626   c0.041-0.125,0.123-1.126,0.166-1.251c0.041-0.124,0.291-0.834,0.291-0.834l0.752-0.334l0.5-0.542c0,0-0.084-0.751-0.166-0.876   c-0.084-0.125-0.834-0.959-0.793-1.251c0.043-0.292,0.584-1.21,0.584-1.21s0.25-0.084,0.418-0.042   c0.166,0.042,0.625,0.709,0.625,0.709v1.001l-0.125,0.96l0.5,0.625c0,0,0.166,0.752,0.166,0.918c0,0.168,0.252,1.21,0.252,1.335   s-0.252,0.918-0.252,0.918l-0.666,0.167l-0.125,0.959c0,0,0.166,0.542,0.291,0.542s0.834,0,0.875,0.125   c0.043,0.125,0.127,0.543,0.127,0.543h0.793l-0.084-1.502l0.25-1.126l-0.125-0.751l-0.377-1.418l-0.082-1.001   c0,0-0.043-1.043-0.084-1.168c-0.041-0.126-0.584-1.628-0.584-1.628l-0.541-0.791l-1.252-0.126c0,0-0.709,0.251-1,0.167   c-0.293-0.084-0.461-0.584-0.461-0.584l0.418-0.417L77.438,56.097z"/></g><text x="0" y="115" fill="#000000" font-size="5px" font-weight="bold" font-family="'Helvetica Neue', Helvetica, Arial-Unicode, Arial, Sans-serif">Created by Sofie Hauge Katan</text><text x="0" y="120" fill="#000000" font-size="5px" font-weight="bold" font-family="'Helvetica Neue', Helvetica, Arial-Unicode, Arial, Sans-serif">from the Noun Project</text></svg>