<svg xmlns="http://www.w3.org/2000/svg" xmlns:xlink="http://www.w3.org/1999/xlink" version="1.1" x="0px" y="0px" viewBox="0 0 100 125" enable-background="new 0 0 100 100" xml:space="preserve"><g><rect x="-192" width="185" height="99"/><rect y="-36" width="100" height="30"/><text transform="matrix(1 0 0 1 66 -19.5)" fill="#000000" font-family="'Helvetica'" font-size="2.4">http://thenounproject.com</text><text transform="matrix(1 0 0 1 7.166 -24.5)"><tspan x="0" y="0" fill="#000000" font-family="'Helvetica-Bold'" font-size="6.1578">The Noun Project</tspan><tspan x="1.12" y="4.8" fill="#000000" font-family="'Helvetica-Bold'" font-size="4">Icon Template</tspan></text><text transform="matrix(1 0 0 1 -178.5 10.5)" fill="#000000" font-family="'Helvetica-Bold'" font-size="6.1578">Reminders</text><line fill="#000000" stroke="#FFFFFF" stroke-miterlimit="10" x1="8" y1="-14.5" x2="18" y2="-14.5"/><line fill="#000000" stroke="#FFFFFF" stroke-miterlimit="10" x1="-179" y1="16.5" x2="-162" y2="16.5"/><g><g><g><rect x="-170.802" y="31.318" fill="#000000" width="8.721" height="8.642"/><path fill="#000000" d="M-164.455,42.312h4.747v-4.703h-4.747V42.312z M-159.266,42.749h-5.63V37.17h5.63V42.749      L-159.266,42.749z M-166.221,44.062h8.279v-8.203h-8.279V44.062L-166.221,44.062z M-157.5,44.5h-9.163v-9.079h9.163V44.5      L-157.5,44.5z"/><polygon fill="#000000" points="-166.149,44.133 -166.292,43.991 -158.013,35.787 -157.871,35.929     "/></g></g></g><rect x="-179" y="58" fill="none" width="35" height="32.5"/><text transform="matrix(1 0 0 1 -179 60.1572)"><tspan x="0" y="0" fill="#000000" font-family="'Helvetica-Bold'" font-size="3">Strokes</tspan><tspan x="0" y="5" fill="#000000" font-family="'Helvetica'" font-size="2.4">Try to keep strokes at 4px</tspan><tspan x="0" y="10" fill="#000000" font-family="'Helvetica'" font-size="2.4">Minimum stroke weight is 2px</tspan><tspan x="0" y="14.5" fill="#000000" font-family="'Helvetica'" font-size="2.4">For thicker strokes use even </tspan><tspan x="0" y="17.5" fill="#000000" font-family="'Helvetica'" font-size="2.4">numbers: 6px, 8px etc.</tspan><tspan x="0" y="22" fill="#000000" font-family="'Helvetica-Bold'" font-size="2.4">Remember to expand strokes </tspan><tspan x="0" y="25" fill="#000000" font-family="'Helvetica-Bold'" font-size="2.4">before saving as an SVG </tspan></text><rect x="-136.5" y="58" fill="none" width="35" height="32.5"/><text transform="matrix(1 0 0 1 -136.5 60.1572)"><tspan x="0" y="0" fill="#000000" font-family="'Helvetica-Bold'" font-size="3">Size</tspan><tspan x="0" y="5" fill="#000000" font-family="'Helvetica'" font-size="2.4">Cannot be wider or taller than </tspan><tspan x="0" y="8.5" fill="#000000" font-family="'Helvetica'" font-size="2.4">100px (artboard size)</tspan><tspan x="0" y="13.5" fill="#000000" font-family="'Helvetica'" font-size="2.4">Scale your icon to fill as much of </tspan><tspan x="0" y="16.5" fill="#000000" font-family="'Helvetica'" font-size="2.4">the artboard as possible</tspan></text><rect x="-94" y="58" fill="none" width="35" height="32.5"/><text transform="matrix(1 0 0 1 -94 60.1572)"><tspan x="0" y="0" fill="#000000" font-family="'Helvetica-Bold'" font-size="3">Ungroup</tspan><tspan x="0" y="5" fill="#000000" font-family="'Helvetica'" font-size="2.4">If your design has more than one </tspan><tspan x="0" y="8" fill="#000000" font-family="'Helvetica'" font-size="2.4">shape, make sure to ungroup</tspan></text><rect x="-50" y="58" fill="none" width="35" height="32.5"/><text transform="matrix(1 0 0 1 -50 60.1572)"><tspan x="0" y="0" fill="#000000" font-family="'Helvetica-Bold'" font-size="3">Save as</tspan><tspan x="0" y="5" fill="#000000" font-family="'Helvetica'" font-size="2.4">Save as .SVG and make sure </tspan><tspan x="0" y="8" fill="#000000" font-family="'Helvetica'" font-size="2.4">“Use Artboards” is checked</tspan></text><text transform="matrix(1.0074 0 0 1 -125.542 30.5933)" fill="#000000" font-family="'Helvetica'" font-size="2.5731">100px</text><text transform="matrix(1.0074 0 0 1 -41 39)" fill="#000000" font-family="'Helvetica-Bold'" font-size="5.1462">.SVG</text><rect x="-126.514" y="34.815" fill="#000000" width="10.261" height="10.185"/><rect x="-126.477" y="31.766" fill="#000000" width="0.522" height="2.337"/><rect x="-116.812" y="31.766" fill="#000000" width="0.523" height="2.337"/><rect x="-127" y="32.337" fill="#000000" width="11.233" height="0.572"/><g><rect x="-83.805" y="33.844" fill="#000000" width="10.305" height="10.156"/><rect x="-76.809" y="28.707" fill="#000000" width="3.308" height="3.261"/></g><rect x="-178.5" y="22.5" fill="#000000" stroke="#FFFFFF" stroke-miterlimit="10" width="30" height="30"/><rect x="-136.5" y="22.5" fill="#000000" stroke="#FFFFFF" stroke-miterlimit="10" width="30" height="30"/><rect x="-93.5" y="22.5" fill="#000000" stroke="#FFFFFF" stroke-miterlimit="10" width="30" height="30"/><rect x="-49.5" y="22.5" fill="#000000" stroke="#FFFFFF" stroke-miterlimit="10" width="30" height="30"/></g><g><path fill="#000000" stroke="#FFFFFF" stroke-width="2.5962" stroke-miterlimit="10" d="M84,208c-1.533-5.117,10.702-9.893,13-4.69"/><path fill="#000000" d="M185.791,86.377c-1.822,0.201-2.074-1.033-2.307-2.859L171.983,7.075c-0.237-1.849,1.372-3.581,3.22-3.818   c1.84-0.253,3.988,0.87,4.227,2.718l8.068,76.75c0.236,1.844,0.203,3.408-1.646,3.645   C185.834,86.373,185.812,86.375,185.791,86.377z"/><g><path fill="#000000" d="M212.215,102.982c-1.727,0.146-8.25-0.264-9.104-1.898l-41.855-89.95c-1.133-2.17-0.237-4.526,1.933-5.661    c2.169-1.133,4.315-0.976,5.449,1.194l51.431,87.569c1.135,2.176-4.016,7.121-6.184,8.258    C213.35,102.771,212.783,102.934,212.215,102.982z"/></g><g><path fill="#000000" d="M206.293,99.936L162.51,10.601c-0.93-1.774-0.723-3.485,1.054-4.414c1.774-0.927,3.134-0.18,4.062,1.596    l48.164,86.561c0.93,1.775-1.275,4.551-3.074,5.43C211.072,100.578,206.994,101.273,206.293,99.936z"/></g><g><path fill="#000000" d="M130.997,98.771c-0.87,0-1.751-0.242-2.533-0.756c-2.145-1.398-4.994-6.264-3.593-8.406l58.861-84.546    c1.4-2.146,4.273-2.882,6.418-1.48c2.145,1.4,2.475,4.687,1.074,6.831L137.713,97.1C136.824,98.463,132.51,98.771,130.997,98.771z    "/></g><g><path fill="#000000" d="M130.223,96.031c-1.875-0.939-3.764-4.127-2.617-5.879L184.85,6.444c1.148-1.755,2.096-2.305,3.848-1.16    c1.754,1.147,2.678,2.112,1.529,3.866l-54.293,86.851C135.206,97.115,132.362,97.1,130.223,96.031z"/></g><path fill="#000000" stroke="#FFFFFF" stroke-width="2.9369" stroke-miterlimit="10" d="M127.012,89.609   c0,0,6.225-0.223,10.701,7.49"/><path fill="#000000" stroke="#FFFFFF" stroke-width="2.5974" stroke-miterlimit="10" d="M205.279,100.311   c-1.533-5.117,9.723-9.893,12.023-4.689"/><g><path fill="#000000" stroke="#FFFFFF" stroke-width="6.4212" stroke-linecap="round" stroke-miterlimit="10" d="M173.551,22.021    c1.916-0.934,6.496,3.376,6.971,5.516"/><path fill="#000000" d="M180.52,29.143c-0.734,0-1.398-0.509-1.564-1.257c-0.311-1.397-3.602-4.465-4.767-4.391    c-0.782,0.339-1.703,0.006-2.081-0.77c-0.389-0.797-0.058-1.758,0.739-2.146c0.958-0.467,2.112-0.381,3.435,0.257    c2.277,1.097,5.309,4.112,5.809,6.354c0.191,0.865-0.354,1.723-1.219,1.915C180.754,29.13,180.637,29.143,180.52,29.143z"/></g><g><path fill="#000000" stroke="#FFFFFF" stroke-width="6.4212" stroke-linecap="round" stroke-miterlimit="10" d="M170.339,25.527    c1.917-0.935,6.499,3.376,6.972,5.515"/><path fill="#000000" d="M177.309,32.648c-0.736,0-1.398-0.51-1.564-1.258C175.436,30.001,172.174,27,171,27    c-0.008,0-0.016,0-0.023,0c-0.782,0.338-1.703,0.006-2.08-0.77c-0.389-0.797-0.059-1.758,0.738-2.146    c0.959-0.467,2.117-0.38,3.441,0.259c2.275,1.099,5.307,4.113,5.803,6.352c0.191,0.866-0.355,1.723-1.221,1.915    C177.541,32.636,177.424,32.648,177.309,32.648z"/></g><g><path fill="#000000" stroke="#FFFFFF" stroke-width="6.4212" stroke-linecap="round" stroke-miterlimit="10" d="M167.68,29.514    c1.915-0.935,6.496,3.376,6.971,5.515"/><path fill="#000000" d="M174.648,36.634c-0.736,0-1.399-0.509-1.566-1.258c-0.309-1.396-3.624-4.409-4.764-4.39    c-0.783,0.342-1.703,0.007-2.082-0.769c-0.389-0.796-0.059-1.758,0.738-2.146c0.957-0.468,2.113-0.381,3.436,0.256    c2.277,1.097,5.309,4.111,5.807,6.353c0.191,0.865-0.354,1.723-1.219,1.915C174.881,36.622,174.764,36.634,174.648,36.634z"/></g><path fill="#000000" stroke="#FFFFFF" stroke-width="2.9369" stroke-miterlimit="10" d="M3.299,197.001   c0,0,6.225-0.223,10.701,7.491"/><path fill="#000000" d="M204.77,219.215l-45.355-93.07c-0.962-1.849-0.748-3.63,1.092-4.599c1.838-0.965,3.246-0.188,4.207,1.663   l49.893,90.181c0.963,1.85-1.32,4.74-3.185,5.657C209.72,219.885,205.496,220.609,204.77,219.215z"/><path fill="#000000" stroke="#FFFFFF" stroke-width="2.5962" stroke-miterlimit="10" d="M203,219.321   c-1.533-5.117,10.702-9.893,13-4.69"/><path fill="#000000" d="M182.385,205.09c-1.887,0.209-2.145-1.048-2.383-2.909l-11.723-77.896c-0.242-1.885,1.43-3.653,3.344-3.9   c1.905-0.262,4.128,0.877,4.369,2.76l8.168,78.219c0.243,1.879,0.202,3.475-1.713,3.719   C182.429,205.086,182.407,205.087,182.385,205.09z"/><path fill="#000000" d="M125.92,215.156c-1.912-0.967-3.838-4.252-2.668-6.059l58.364-86.262c1.171-1.808,2.137-2.374,3.923-1.194   c1.789,1.182,2.73,2.176,1.559,3.984l-55.355,89.5C131.001,216.273,128.102,216.258,125.92,215.156z"/><g><path fill="#000000" stroke="#FFFFFF" stroke-width="6.6707" stroke-linecap="round" stroke-miterlimit="10" d="M170.851,138.042    c1.985-0.973,6.729,3.518,7.223,5.747"/><path fill="#000000" d="M178.071,145.462c-0.762,0-1.448-0.529-1.623-1.311c-0.32-1.455-3.729-4.651-4.936-4.574    c-0.811,0.354-1.765,0.006-2.156-0.803c-0.402-0.83-0.06-1.831,0.766-2.235c0.992-0.487,2.188-0.397,3.558,0.269    c2.359,1.143,5.5,4.283,6.017,6.619c0.2,0.901-0.365,1.795-1.263,1.995C178.312,145.449,178.19,145.462,178.071,145.462z"/></g><g><path fill="#000000" stroke="#FFFFFF" stroke-width="6.6707" stroke-linecap="round" stroke-miterlimit="10" d="M167.524,141.694    c1.985-0.973,6.731,3.518,7.222,5.746"/><path fill="#000000" d="M174.744,149.114c-0.763,0-1.449-0.531-1.621-1.311c-0.318-1.447-3.698-4.574-4.914-4.574    c-0.008,0-0.016,0-0.023,0.001c-0.811,0.353-1.765,0.007-2.156-0.802c-0.402-0.831-0.06-1.832,0.766-2.236    c0.994-0.486,2.193-0.396,3.564,0.27c2.358,1.145,5.497,4.285,6.012,6.617c0.198,0.902-0.368,1.795-1.266,1.995    C174.985,149.101,174.864,149.114,174.744,149.114z"/></g><g><path fill="#000000" stroke="#FFFFFF" stroke-width="6.6707" stroke-linecap="round" stroke-miterlimit="10" d="M164.77,145.849    c1.984-0.975,6.729,3.518,7.221,5.744"/><path fill="#000000" d="M171.988,153.267c-0.763,0-1.45-0.531-1.622-1.311c-0.321-1.455-3.754-4.594-4.936-4.574    c-0.81,0.357-1.765,0.008-2.155-0.801c-0.403-0.829-0.061-1.83,0.765-2.235c0.991-0.487,2.188-0.397,3.56,0.267    c2.357,1.144,5.498,4.283,6.014,6.619c0.199,0.901-0.367,1.795-1.263,1.994C172.229,153.254,172.107,153.267,171.988,153.267z"/></g><path fill="#000000" stroke="#FFFFFF" stroke-width="2.9369" stroke-miterlimit="10" d="M122.299,208.322   c0,0,6.225-0.223,10.701,7.491"/><path fill="none" d="M52.965,9.951c0,0-0.081,1.508-0.363,4.166l0.544-0.023C53.039,11.576,52.965,9.951,52.965,9.951z"/><path fill="none" d="M52.235,17.229c-0.122,0.959-0.265,1.998-0.428,3.113l1.591-0.062c-0.042-1.079-0.084-2.119-0.124-3.094   L52.235,17.229z"/><path fill="#000000" d="M74.597,34.836"/><path fill="#000000" d="M104,188.971c0,0-12.146-7.507-27.353-31.68C60.87,132.209,57.96,121,57.96,121s-7.712,17.85-24.227,38.686   c-13.789,17.396-27.754,29.092-27.754,29.092c4.655,0.773,7.838,0.193,7.838,0.193l-0.09,25.999   c4.413-6.187,15.109-22.205,3.811-27.656c17.517-16.352,37.923-39.571,40.295-64.357c1.125,24.349-18.847,48.321-36.104,63.921   c9.204,6.121-3.614,23.395-8.001,28.093c0,0,16.141-3.479,27.739-25.902c8.822-17.057,13.022-35.066,14.982-46.946l2.192-0.082   c0.038,1.021,0.075,2.059,0.11,3.094l-2.542,0.086l0.101,3.085l2.544-0.078c0.032,1.057,0.062,2.095,0.09,3.094l-2.546,0.069   c0.029,1.08,0.053,2.113,0.069,3.072l2.548,0.198c0.022,1.138,0.037,2.341,0.041,3.341H56v-0.054c0,0.743,0.221,1.595,0.173,2.532   l2.692,0.131c-0.044,0.95-0.044,1.984-0.125,3.092l-2.543-0.189c-0.071,0.974-0.141,1.996-0.232,3.052l2.584,0.224   c-0.086,1.002-0.176,2.037-0.274,3.085l-2.571-0.239l-0.29,3.075l2.574,0.245c-0.1,1.029-0.198,2.058-0.296,3.081l-2.572-0.243   c-0.099,1.047-0.195,2.081-0.287,3.092l2.569,0.234c-0.097,1.059-0.187,2.088-0.27,3.083l-2.571-0.211   c-0.09,1.101-0.168,2.152-0.23,3.133l2.567,0.164c-0.075,1.131-0.128,2.167-0.154,3.089l-2.563-0.062   c-0.01,0.424-0.015,0.895-0.015,1.405c0,0.551,0.006,1.15,0.017,1.788l2.552-0.04c0.015,0.95,0.04,1.992,0.074,3.093l-2.548,0.083   c0.031,1,0.07,2.046,0.113,3.112l2.547-0.104c0.041,1.018,0.087,2.055,0.135,3.091l-2.546,0.121l0.153,3.1l2.545-0.131   c0.055,1.066,0.11,2.104,0.165,3.091l-2.546,0.141l0.176,3.098l2.546-0.148c0.073,1.242,0.137,2.289,0.186,3.083l-2.546,0.158   l0.094,1.498l2.547,0.004c0.003,0.047,0.005,0.245,0.005,0.245h8.217l-4.925-15.126L70.563,215h0.439l-2.521-27.304L73.523,215   h0.41L78,201.731V215h0.161c0.434-3,2.795-16.134,13.69-13.253c2.556,0.674,2.812,3.38,2.812,3.38s-1.73-1.429-4.111-1.573   C81.36,202.995,82.765,212,83.416,215h13.077l-0.144-26.026C96.35,188.974,100.263,190.001,104,188.971z M58.09,128.617   c0,0,0.074,1.625,0.181,4.142l-0.544,0.023C58.009,130.125,58.09,128.617,58.09,128.617z M56.933,139.008   c0.163-1.115,0.306-2.154,0.428-3.113l1.039-0.042c0.04,0.975,0.082,2.015,0.124,3.094L56.933,139.008z"/><path fill="#000000" stroke="#FFFFFF" stroke-width="0.3866" stroke-miterlimit="10" d="M0,70.546"/><polyline fill="#000000" points="19.402,89.258 19.402,73.738 9,69.133 11.558,60.436 9,54.127 10.534,36.049 10.875,34.685    18.294,20.7 25.201,19.166 33.728,17.972 41.231,5.693 46.518,5.182 52.657,0.918 54.192,0.918 49.759,5.352 51.976,9.957    51.976,16.778 48.369,24.678 48.564,37.754 51.293,40.483 56.409,39.29 58.456,43.553 54.192,51.5 47.09,49.932 46.166,53.25    46.006,60.436 37.991,67.258 39.186,72.375 33.728,86.018 38.844,88.234 36.969,85.506 38.844,84.312 43.448,89.258 37.82,90.963    30.658,91.816  "/><polyline fill="#000000" points="53.457,84.396 46.038,84.396 39.899,76.211 39.899,69.559 48.341,67 53.457,70.326 53.457,67    56.016,70.582 54.736,72.117 59,77.488 56.271,84.396  "/><polyline fill="#000000" points="54.192,94.373 54.192,91.816 54.192,87.467 56.238,87.467 58.456,81.582 59.181,82.029    55.216,94.373  "/><polyline fill="#000000" points="64.937,56.129 73.314,57.367 73,67 75.488,61.438 77,67 78,62 75.232,56.705 80.541,52.484    87.768,54.531 86.36,58.432 87.128,67.193 80.797,70.838 80.797,73.205 84.89,76.467 83.738,78.896 78.175,81.582 79.646,86.57    76.352,87.467 71.075,81.262 63.977,80.303 61.931,75.379 61.931,70.646 57.646,63.803 66.087,62.973 69.669,58.814  "/><polygon fill="#000000" points="70.948,91.816 63.146,87.977 59.82,92.965 67.238,97.059 74.657,96.547 71.587,89.641  "/><polygon fill="#000000" points="72.706,88 76,95.268 76,100 77.375,95.396 79.917,90.547 76.831,88  "/><polyline fill="#000000" points="86.552,88 85.363,85.176 82,85.803 82,87.402 79.352,87.467 79.946,89.652  "/></g><text x="0" y="115" fill="#000000" font-size="5px" font-weight="bold" font-family="'Helvetica Neue', Helvetica, Arial-Unicode, Arial, Sans-serif">Created by SPJDR</text><text x="0" y="120" fill="#000000" font-size="5px" font-weight="bold" font-family="'Helvetica Neue', Helvetica, Arial-Unicode, Arial, Sans-serif">from the Noun Project</text></svg>